<?xml version="1.0" encoding="utf-8"?>
<!-- Generator: Adobe Illustrator 20.1.0, SVG Export Plug-In . SVG Version: 6.00 Build 0)  -->
<svg version="1.1" id="YouTube_Logo" xmlns="http://www.w3.org/2000/svg" xmlns:xlink="http://www.w3.org/1999/xlink" x="0px"
	 y="0px" viewBox="0 0 33 14" style="enable-background:new 0 0 33 14;" xml:space="preserve">
<style type="text/css">
	.st0{fill:#FFFFFF;}
</style>
<path id="lozenge_2_" d="M32.43,2.937c0,0-0.19-1.334-0.773-1.921c-0.739-0.771-1.568-0.775-1.948-0.82C26.988,0,22.906,0,22.906,0
	h-0.009c0,0-4.081,0-6.802,0.196c-0.38,0.045-1.209,0.049-1.948,0.82c-0.583,0.587-0.773,1.921-0.773,1.921S13.18,4.503,13.18,6.07
	v1.469c0,1.566,0.194,3.133,0.194,3.133s0.19,1.334,0.773,1.921c0.74,0.771,1.711,0.747,2.144,0.827
	c1.555,0.149,6.611,0.195,6.611,0.195s4.086-0.006,6.807-0.202c0.38-0.045,1.209-0.049,1.948-0.82
	c0.583-0.587,0.773-1.921,0.773-1.921s0.194-1.566,0.194-3.133V6.07C32.624,4.503,32.43,2.937,32.43,2.937z"/>
<g id="You">
	<path id="u_2_" d="M12.176,11.017h-1.237v-0.716c-0.469,0.538-0.867,0.809-1.3,0.809c-0.38,0-0.644-0.179-0.777-0.503
		c-0.08-0.197-0.137-0.505-0.137-0.957V4.441h1.237v4.884c0,0.276,0,0.391,0,0.456c0.029,0.183,0.106,0.25,0.264,0.25
		c0.237,0,0.451-0.206,0.713-0.575V4.441h1.237V11.017z"/>
	<path id="o_2_" d="M7.814,6.589c0-0.703-0.141-1.231-0.391-1.563c-0.33-0.45-0.846-0.634-1.367-0.634
		c-0.59,0-1.038,0.184-1.367,0.634C4.435,5.359,4.299,5.892,4.299,6.595L4.298,8.933c0,0.699,0.121,1.182,0.374,1.511
		c0.329,0.448,0.863,0.686,1.384,0.686s1.064-0.238,1.393-0.686c0.25-0.329,0.365-0.812,0.365-1.511V6.589z M6.577,9.064
		c0.065,0.651-0.137,0.974-0.521,0.974S5.47,9.715,5.535,9.064V6.459C5.47,5.808,5.671,5.503,6.056,5.503
		c0.384,0,0.587,0.305,0.522,0.956L6.577,9.064z"/>
	<path id="y_2_" d="M2.93,7.436v3.581H1.628V7.436c0,0-1.349-4.391-1.628-5.209h1.367l0.914,3.43l0.909-3.43h1.367L2.93,7.436z"/>
</g>
<g id="Tube">
	<path id="e_2_" class="st0" d="M30.997,7.957l0-1.331c0-0.695-0.137-1.204-0.383-1.533c-0.33-0.445-0.8-0.681-1.391-0.681
		c-0.602,0-1.071,0.236-1.412,0.681c-0.25,0.329-0.397,0.867-0.397,1.562v2.279c0,0.691,0.161,1.175,0.411,1.501
		c0.341,0.445,0.81,0.667,1.427,0.667c0.616,0,1.1-0.233,1.426-0.705c0.143-0.209,0.236-0.445,0.276-0.706
		c0.011-0.118,0.042-0.387,0.042-0.767V8.738h-1.237c0,0.473,0.002,0.754-0.009,0.818c-0.067,0.315-0.236,0.473-0.527,0.473
		c-0.405,0-0.576-0.303-0.572-0.903V7.957H30.997z M28.65,6.261c0-0.609,0.167-0.775,0.561-0.775c0.391,0,0.546,0.181,0.546,0.783
		V6.98L28.65,6.981V6.261z"/>
	<path id="b_2_" class="st0" d="M25.532,4.401c-0.434,0-0.865,0.267-1.246,0.735l0.001-2.845h-1.172v8.725h1.172l0.002-0.656
		c0.394,0.487,0.823,0.74,1.243,0.74c0.469,0,0.812-0.251,0.97-0.735c0.079-0.276,0.13-0.7,0.13-1.302V6.459
		c0-0.616-0.079-1.038-0.158-1.299C26.317,4.672,26.001,4.401,25.532,4.401z M25.395,9.129c0,0.651-0.154,0.901-0.493,0.901
		c-0.194,0-0.418-0.1-0.615-0.297l0.001-3.949c0.197-0.195,0.419-0.297,0.614-0.297c0.34,0,0.493,0.191,0.493,0.842V9.129z"/>
	<path id="u_3_" class="st0" d="M22.139,11.017h-1.237v-0.716c-0.469,0.538-0.867,0.809-1.3,0.809c-0.38,0-0.644-0.179-0.777-0.503
		c-0.08-0.197-0.137-0.505-0.137-0.957V4.506h1.237v4.818c0,0.276,0,0.391,0,0.456c0.029,0.183,0.106,0.25,0.264,0.25
		c0.237,0,0.451-0.206,0.713-0.575V4.506h1.237V11.017z"/>
	<polygon id="T_1_" class="st0" points="17.451,11.017 16.148,11.017 16.148,3.529 14.781,3.529 14.781,2.293 18.883,2.292 
		18.883,3.529 17.451,3.529 	"/>
</g>
</svg>
