<?xml version="1.0" encoding="utf-8"?>
<!-- Generator: Adobe Illustrator 20.1.0, SVG Export Plug-In . SVG Version: 6.00 Build 0)  -->
<svg version="1.1" id="レイヤー_1" xmlns="http://www.w3.org/2000/svg" xmlns:xlink="http://www.w3.org/1999/xlink" x="0px"
	 y="0px" viewBox="0 0 20 20" style="enable-background:new 0 0 20 20;" xml:space="preserve">
<path d="M10.015,1.813c2.672,0,2.987,0,4.046,0.057c0.635,0.008,1.263,0.124,1.859,0.345c0.873,0.337,1.563,1.027,1.9,1.9
	c0.221,0.595,0.337,1.224,0.345,1.859c0.048,1.054,0.057,1.378,0.057,4.046s0,2.987-0.057,4.046
	c-0.008,0.635-0.124,1.263-0.345,1.859c-0.337,0.873-1.027,1.563-1.9,1.9c-0.595,0.221-1.224,0.337-1.859,0.345
	c-1.054,0.048-1.378,0.057-4.046,0.057s-2.987,0-4.046-0.057c-0.635-0.008-1.263-0.124-1.859-0.345
	c-0.873-0.337-1.563-1.027-1.9-1.9c-0.218-0.599-0.332-1.231-0.335-1.868c-0.048-1.054-0.057-1.378-0.057-4.046s0-2.987,0.057-4.046
	C1.883,5.329,1.999,4.701,2.22,4.105c0.337-0.873,1.027-1.563,1.9-1.9c0.595-0.221,1.224-0.337,1.859-0.345
	c1.054-0.048,1.378-0.057,4.046-0.057 M10.024,0c-2.718,0-3.06,0.011-4.135,0.06c-0.83,0.015-1.652,0.17-2.431,0.459
	c-1.344,0.52-2.407,1.583-2.927,2.927c-0.289,0.778-0.445,1.6-0.459,2.431c-0.048,1.068-0.06,1.408-0.06,4.135
	s0.011,3.06,0.06,4.135c0.015,0.83,0.17,1.652,0.459,2.431c0.52,1.344,1.583,2.407,2.927,2.927c0.778,0.289,1.6,0.445,2.431,0.459
	c1.068,0.048,1.408,0.06,4.135,0.06s3.06-0.011,4.135-0.06c0.83-0.015,1.652-0.17,2.431-0.459c1.336-0.523,2.392-1.584,2.908-2.922
	c0.289-0.778,0.445-1.6,0.459-2.431c0.048-1.068,0.06-1.408,0.06-4.135s-0.011-3.06-0.06-4.135c-0.015-0.83-0.17-1.652-0.459-2.431
	c-0.521-1.338-1.581-2.396-2.92-2.915c-0.778-0.289-1.6-0.445-2.431-0.459c-1.068-0.048-1.408-0.06-4.135-0.06l0,0L10.024,0z"/>
<path d="M10.015,4.88c-2.838,0-5.139,2.301-5.139,5.139c0,2.838,2.301,5.139,5.139,5.139s5.139-2.301,5.139-5.139l0,0
	C15.154,7.181,12.853,4.88,10.015,4.88z M10.015,13.357c-1.842-0.006-3.331-1.505-3.324-3.347c0.006-1.842,1.505-3.331,3.347-3.324
	c1.837,0.006,3.323,1.497,3.324,3.333c0.006,1.842-1.482,3.341-3.324,3.347c-0.008,0-0.015,0-0.023,0V13.357z"/>
<circle cx="15.359" cy="4.677" r="1.202"/>
</svg>
